# xmcd CD database file
#
# Track frame offsets:
#	150
#	10208
#	19967
#	29572
#	39270
#	50887
#	60022
#	70624
#	81811
#	95045
#	106830
#	116447
#	126585
#	134486
#	144805
#	155712
#	166601
#	176967
#	186900
#	197312
#	210267
#	222523
#	233791
#	244843
#	255946
#	267930
#	278489
#	290822
#	301039
#
# Disc length: 4194 seconds
#
# Revision: 0
# Processed by: cddbd v1.5.2PL0 Copyright (c) Steve Scherf et al.
# Submitted via: CDex 1.70beta2
#
DISCID=9710601d
DTITLE=Johnny Paycheck - Shakin' The Blues
DYEAR=2006
DGENRE=Country
TTITLE0=I Guess I Had It Coming
TTITLE1=It's Been A Long, Long Time
TTITLE2=On This Mountain Top
TTITLE3=The Old Man And The River
TTITLE4=Story Behind The Photograph
TTITLE5=Pictures Can't Talk Back
TTITLE6=Shakin' The Blues
TTITLE7=Miracle Of Love
TTITLE8=Go Ring The Bells
TTITLE9=One Day A Week
TTITLE10=I'm Out Of My Mind
TTITLE11=Second Thought
TTITLE12=Big Swamp Land
TTITLE13=I'd Come Back To Me
TTITLE14=Love Problems
TTITLE15=Down To My Last Dime
TTITLE16=Not Much I Don't
TTITLE17=Don't You Get Lonesome Without Me
TTITLE18=I'm Glad To Have Her Back Again
TTITLE19=The Same Old Me
TTITLE20=A Woman's Intuition
TTITLE21=Why I'm Walkin'
TTITLE22=Accidentally On Purpose
TTITLE23=Above And Beyond
TTITLE24=Your Old Used To Be
TTITLE25=Window Up Above
TTITLE26=Heart Over Mind
TTITLE27=Hello Walls
TTITLE28=I Love You Best Of All
EXTD=YEAR: 2006
EXTT0=
EXTT1=
EXTT2=
EXTT3=
EXTT4=
EXTT5=
EXTT6=
EXTT7=
EXTT8=
EXTT9=
EXTT10=
EXTT11=
EXTT12=
EXTT13=
EXTT14=
EXTT15=
EXTT16=
EXTT17=
EXTT18=
EXTT19=
EXTT20=
EXTT21=
EXTT22=
EXTT23=
EXTT24=
EXTT25=
EXTT26=
EXTT27=
EXTT28=
PLAYORDER=
